# xmcd CD database file
#
# Track frame offsets:
#	150
#	21647
#	51705
#	90762
#	110107
#	138250
#	172082
#	203312
#	226145
#	257432
#	284640
#	319887
#
# Disc length: 4587 seconds
#
# Revision: 0
# Processed by: cddbd v1.5.1PL0 Copyright (c) Steve Scherf et al.
# Submitted via: CDex 1.60beta1
#
DISCID=ab11e90c
DTITLE=Various Artist - El Patio De Mi Casa - Spanish House Vol. 2
DYEAR=1900
DGENRE=Other
TTITLE0=Mannix - Vouz-Vouz
TTITLE1=Oriol Ainslie - Tun Tun Pa
TTITLE2=3493 - Blood
TTITLE3=Teen Marcianas - Fait Taim
TTITLE4=Black Honey - Black Up
TTITLE5=L'As Du Falafel - F.G.
TTITLE6=Azid Green - Pleasure Excess
TTITLE7=Fat Db - Can Make It
TTITLE8=The Jook - Operating
TTITLE9=Ar Too Dee Too - Some Call It Home, Some Call It House (Featuring Milinko)
TTITLE10=Casino Royale - Pure
TTITLE11=Won-G - Rambutan
EXTD=
EXTT0=
EXTT1=
EXTT2=
EXTT3=
EXTT4=
EXTT5=
EXTT6=
EXTT7=
EXTT8=
EXTT9=
EXTT10=
EXTT11=
PLAYORDER=
